<svg width="50" height="50" viewBox="0 0 50 50" fill="none" xmlns="http://www.w3.org/2000/svg">
<path d="M47.6689 0.528442H2.33112C1.0437 0.528442 0 1.57214 0 2.85957V9.74933C0 11.0368 1.0437 12.0805 2.33112 12.0805H9.26233V21.4049C8.03978 22.8036 2.90095 28.8749 2.27932 32.8948C2.27544 32.9465 2.27544 32.9985 2.27932 33.0502V48.4356C2.27932 49.0078 2.74321 49.4717 3.31538 49.4717H15.8724C16.2114 49.4712 16.5287 49.3047 16.7219 49.0262L22.0265 41.3904C22.0928 41.2924 22.1419 41.1839 22.1716 41.0693C22.1716 40.9035 22.7207 39.0593 23.332 36.5313H39.7016C40.2738 36.5313 40.7377 36.0675 40.7377 35.4953V12.0805H47.6689C48.9563 12.0805 50 11.0368 50 9.74933V2.85957C50 1.57214 48.9563 0.528442 47.6689 0.528442ZM23.3838 25.5181C22.6199 30.5173 21.5648 35.4678 20.2238 40.344L15.3232 47.3892H4.34107V33.1745C4.74513 30.8123 7.2731 27.1861 9.26233 24.6892V35.4953C9.26233 36.0675 9.72622 36.5313 10.2984 36.5313H14.0385C14.1662 36.5303 14.2928 36.5058 14.4115 36.4588L14.5255 36.3967C14.5997 36.3601 14.6692 36.3149 14.7327 36.262L14.8259 36.1584C14.874 36.1009 14.9157 36.0383 14.9503 35.9719L15.0124 35.8372C15.0124 35.8372 15.0124 35.8372 15.0124 35.7647C16.0485 31.9313 18.3071 25.3109 20.0166 23.8397C21.177 22.8036 21.8504 22.6897 22.1405 22.6897C22.3594 22.6847 22.5673 22.7848 22.7 22.959C23.2075 23.7116 23.4482 24.6126 23.3838 25.5181ZM38.6656 34.4592H23.8293C24.4716 31.6515 25.1243 28.419 25.4455 25.7667C25.5719 24.2889 25.1557 22.8158 24.2748 21.6225C23.7561 21.0167 23.0003 20.6652 22.2027 20.659C20.883 20.7753 19.6483 21.3595 18.7215 22.3063C16.3179 24.3784 14.0178 31.9313 13.2822 34.5007H11.3344V7.38712H38.6656V34.4592ZM47.9279 9.73897C47.9279 9.88207 47.812 9.99798 47.6689 9.99798H40.7377V7.38712H42.6129C43.1851 7.38712 43.649 6.92323 43.649 6.35107C43.649 5.77891 43.1851 5.31502 42.6129 5.31502H7.38707C6.81491 5.31502 6.35102 5.77891 6.35102 6.35107C6.35102 6.92323 6.81491 7.38712 7.38707 7.38712H9.27269V10.0498H2.33112C2.18802 10.0498 2.07211 9.93388 2.07211 9.79077V2.85957C2.07211 2.71646 2.18802 2.60055 2.33112 2.60055H47.6689C47.812 2.60055 47.9279 2.71646 47.9279 2.85957V9.73897Z" fill="#C1A87D" stroke="#C1A87D"/>
</svg>
