<svg width="50" height="50" viewBox="0 0 50 50" fill="none" xmlns="http://www.w3.org/2000/svg">
<mask id="path-1-inside-1" fill="white">
<path d="M47.5806 31.4516H45.1613V33.0645H43.8677L42.9427 27.0516C42.7597 25.8629 41.7548 25 40.5516 25H24.771C23.5677 25 22.5629 25.8629 22.3798 27.0516L21.4548 33.0645H20.1613V31.4516H17.7419C16.4081 31.4516 15.3226 32.5371 15.3226 33.871C15.3226 35.2048 16.4081 36.2903 17.7419 36.2903H20.1613V34.6774H21.2065L21.0597 35.6306C19.5468 36.6444 18.5484 38.3685 18.5484 40.3226V45.1613H20.1613V46.7742C20.1613 47.3645 20.3323 47.9105 20.6097 48.3871H13.7097V22.3129C18.7758 21.2016 22.5806 16.6847 22.5806 11.2903C22.5806 5.06452 17.5161 0 11.2903 0C5.06452 0 0 5.06452 0 11.2903C0 16.6847 3.80484 21.2016 8.87097 22.3129V48.3871H3.22581V50H8.87097H13.7097H46.7742V48.3871H44.7129C44.9903 47.9105 45.1613 47.3645 45.1613 46.7742V45.1613H46.7742V40.3226C46.7742 38.3685 45.7758 36.6444 44.2629 35.6306L44.1161 34.6774H45.1613V36.2903H47.5806C48.9145 36.2903 50 35.2048 50 33.871C50 32.5371 48.9145 31.4516 47.5806 31.4516ZM18.5484 34.6774H17.7419C17.2976 34.6774 16.9355 34.3153 16.9355 33.871C16.9355 33.4266 17.2976 33.0645 17.7419 33.0645H18.5484V34.6774ZM12.0968 48.3871H10.4839V25.8065H12.0968V48.3871ZM12.0968 24.1935H10.4839V22.5395C10.7516 22.5589 11.0177 22.5806 11.2903 22.5806C11.5629 22.5806 11.829 22.5589 12.0968 22.5395V24.1935ZM11.2903 20.9677C5.95403 20.9677 1.6129 16.6266 1.6129 11.2903C1.6129 5.95403 5.95403 1.6129 11.2903 1.6129C16.6266 1.6129 20.9677 5.95403 20.9677 11.2903C20.9677 16.6266 16.6266 20.9677 11.2903 20.9677ZM23.9734 27.296C24.0347 26.9 24.3702 26.6129 24.771 26.6129H40.5516C40.9524 26.6129 41.2879 26.9 41.3484 27.2968L42.5113 34.8565C42.0686 34.7435 41.6065 34.6774 41.129 34.6774H24.1935C23.7161 34.6774 23.254 34.7435 22.8105 34.8556L23.9734 27.296ZM20.1613 43.5484V41.129H27.4194V43.5484H20.1613ZM25 46.7742C25 47.6637 24.2766 48.3871 23.3871 48.3871C22.4976 48.3871 21.7742 47.6637 21.7742 46.7742V45.1613H25V46.7742ZM26.1645 48.3871C26.4419 47.9105 26.6129 47.3645 26.6129 46.7742V45.1613H38.7097V46.7742C38.7097 47.3645 38.8806 47.9105 39.1581 48.3871H26.1645ZM29.0323 43.5484V40.3226C29.0323 39.8782 29.3944 39.5161 29.8387 39.5161H35.4839C35.9282 39.5161 36.2903 39.8782 36.2903 40.3226V43.5484H29.0323ZM43.5484 46.7742C43.5484 47.6637 42.825 48.3871 41.9355 48.3871C41.046 48.3871 40.3226 47.6637 40.3226 46.7742V45.1613H43.5484V46.7742ZM45.1613 43.5484H37.9032V41.129H45.1613V43.5484ZM45.0798 39.5161H37.7548C37.421 38.5798 36.5339 37.9032 35.4839 37.9032H29.8387C28.7887 37.9032 27.9016 38.5798 27.5677 39.5161H20.2427C20.6177 37.6782 22.246 36.2903 24.1935 36.2903H41.129C43.0758 36.2903 44.7048 37.6782 45.0798 39.5161ZM47.5806 34.6774H46.7742V33.0645H47.5806C48.025 33.0645 48.3871 33.4266 48.3871 33.871C48.3871 34.3153 48.025 34.6774 47.5806 34.6774Z"/>
</mask>
<path d="M47.5806 31.4516H45.1613V33.0645H43.8677L42.9427 27.0516C42.7597 25.8629 41.7548 25 40.5516 25H24.771C23.5677 25 22.5629 25.8629 22.3798 27.0516L21.4548 33.0645H20.1613V31.4516H17.7419C16.4081 31.4516 15.3226 32.5371 15.3226 33.871C15.3226 35.2048 16.4081 36.2903 17.7419 36.2903H20.1613V34.6774H21.2065L21.0597 35.6306C19.5468 36.6444 18.5484 38.3685 18.5484 40.3226V45.1613H20.1613V46.7742C20.1613 47.3645 20.3323 47.9105 20.6097 48.3871H13.7097V22.3129C18.7758 21.2016 22.5806 16.6847 22.5806 11.2903C22.5806 5.06452 17.5161 0 11.2903 0C5.06452 0 0 5.06452 0 11.2903C0 16.6847 3.80484 21.2016 8.87097 22.3129V48.3871H3.22581V50H8.87097H13.7097H46.7742V48.3871H44.7129C44.9903 47.9105 45.1613 47.3645 45.1613 46.7742V45.1613H46.7742V40.3226C46.7742 38.3685 45.7758 36.6444 44.2629 35.6306L44.1161 34.6774H45.1613V36.2903H47.5806C48.9145 36.2903 50 35.2048 50 33.871C50 32.5371 48.9145 31.4516 47.5806 31.4516ZM18.5484 34.6774H17.7419C17.2976 34.6774 16.9355 34.3153 16.9355 33.871C16.9355 33.4266 17.2976 33.0645 17.7419 33.0645H18.5484V34.6774ZM12.0968 48.3871H10.4839V25.8065H12.0968V48.3871ZM12.0968 24.1935H10.4839V22.5395C10.7516 22.5589 11.0177 22.5806 11.2903 22.5806C11.5629 22.5806 11.829 22.5589 12.0968 22.5395V24.1935ZM11.2903 20.9677C5.95403 20.9677 1.6129 16.6266 1.6129 11.2903C1.6129 5.95403 5.95403 1.6129 11.2903 1.6129C16.6266 1.6129 20.9677 5.95403 20.9677 11.2903C20.9677 16.6266 16.6266 20.9677 11.2903 20.9677ZM23.9734 27.296C24.0347 26.9 24.3702 26.6129 24.771 26.6129H40.5516C40.9524 26.6129 41.2879 26.9 41.3484 27.2968L42.5113 34.8565C42.0686 34.7435 41.6065 34.6774 41.129 34.6774H24.1935C23.7161 34.6774 23.254 34.7435 22.8105 34.8556L23.9734 27.296ZM20.1613 43.5484V41.129H27.4194V43.5484H20.1613ZM25 46.7742C25 47.6637 24.2766 48.3871 23.3871 48.3871C22.4976 48.3871 21.7742 47.6637 21.7742 46.7742V45.1613H25V46.7742ZM26.1645 48.3871C26.4419 47.9105 26.6129 47.3645 26.6129 46.7742V45.1613H38.7097V46.7742C38.7097 47.3645 38.8806 47.9105 39.1581 48.3871H26.1645ZM29.0323 43.5484V40.3226C29.0323 39.8782 29.3944 39.5161 29.8387 39.5161H35.4839C35.9282 39.5161 36.2903 39.8782 36.2903 40.3226V43.5484H29.0323ZM43.5484 46.7742C43.5484 47.6637 42.825 48.3871 41.9355 48.3871C41.046 48.3871 40.3226 47.6637 40.3226 46.7742V45.1613H43.5484V46.7742ZM45.1613 43.5484H37.9032V41.129H45.1613V43.5484ZM45.0798 39.5161H37.7548C37.421 38.5798 36.5339 37.9032 35.4839 37.9032H29.8387C28.7887 37.9032 27.9016 38.5798 27.5677 39.5161H20.2427C20.6177 37.6782 22.246 36.2903 24.1935 36.2903H41.129C43.0758 36.2903 44.7048 37.6782 45.0798 39.5161ZM47.5806 34.6774H46.7742V33.0645H47.5806C48.025 33.0645 48.3871 33.4266 48.3871 33.871C48.3871 34.3153 48.025 34.6774 47.5806 34.6774Z" fill="#C1A87D" stroke="#C1A87D" stroke-width="10" mask="url(#path-1-inside-1)"/>
<mask id="path-2-inside-2" fill="white">
<path d="M12.9032 5.64514H8.06445V16.129H9.67736V12.0968H12.9032C14.6822 12.0968 16.129 10.65 16.129 8.87095C16.129 7.09192 14.6822 5.64514 12.9032 5.64514ZM12.9032 10.4839H9.67736V7.25804H12.9032C13.7927 7.25804 14.5161 7.98143 14.5161 8.87095C14.5161 9.76046 13.7927 10.4839 12.9032 10.4839Z"/>
</mask>
<path d="M12.9032 5.64514H8.06445V16.129H9.67736V12.0968H12.9032C14.6822 12.0968 16.129 10.65 16.129 8.87095C16.129 7.09192 14.6822 5.64514 12.9032 5.64514ZM12.9032 10.4839H9.67736V7.25804H12.9032C13.7927 7.25804 14.5161 7.98143 14.5161 8.87095C14.5161 9.76046 13.7927 10.4839 12.9032 10.4839Z" fill="#C1A87D"/>
<path d="M8.06445 5.64514V0.645142H3.06445V5.64514H8.06445ZM8.06445 16.129H3.06445V21.129H8.06445V16.129ZM9.67736 16.129V21.129H14.6774V16.129H9.67736ZM9.67736 12.0968V7.09676H4.67736V12.0968H9.67736ZM9.67736 10.4839H4.67736V15.4839H9.67736V10.4839ZM9.67736 7.25804V2.25804H4.67736V7.25804H9.67736ZM12.9032 0.645142H8.06445V10.6451H12.9032V0.645142ZM3.06445 5.64514V16.129H13.0645V5.64514H3.06445ZM8.06445 21.129H9.67736V11.129H8.06445V21.129ZM14.6774 16.129V12.0968H4.67736V16.129H14.6774ZM9.67736 17.0968H12.9032V7.09676H9.67736V17.0968ZM12.9032 17.0968C17.4436 17.0968 21.129 13.4114 21.129 8.87095H11.129C11.129 7.88856 11.9208 7.09676 12.9032 7.09676V17.0968ZM21.129 8.87095C21.129 4.33049 17.4436 0.645142 12.9032 0.645142V10.6451C11.9208 10.6451 11.129 9.85334 11.129 8.87095H21.129ZM12.9032 5.48385H9.67736V15.4839H12.9032V5.48385ZM14.6774 10.4839V7.25804H4.67736V10.4839H14.6774ZM9.67736 12.258H12.9032V2.25804H9.67736V12.258ZM12.9032 12.258C11.0313 12.258 9.51607 10.7429 9.51607 8.87095H19.5161C19.5161 5.22001 16.5541 2.25804 12.9032 2.25804V12.258ZM9.51607 8.87095C9.51607 6.99904 11.0313 5.48385 12.9032 5.48385V15.4839C16.5541 15.4839 19.5161 12.5219 19.5161 8.87095H9.51607Z" fill="#C1A87D" mask="url(#path-2-inside-2)"/>
<mask id="path-4-inside-3" fill="white">
<path d="M36.2903 31.4517H25.8064V33.0646H36.2903V31.4517Z"/>
</mask>
<path d="M36.2903 31.4517H25.8064V33.0646H36.2903V31.4517Z" fill="#C1A87D"/>
<path d="M25.8064 31.4517V26.4517H20.8064V31.4517H25.8064ZM36.2903 31.4517H41.2903V26.4517H36.2903V31.4517ZM36.2903 33.0646V38.0646H41.2903V33.0646H36.2903ZM25.8064 33.0646H20.8064V38.0646H25.8064V33.0646ZM25.8064 36.4517H36.2903V26.4517H25.8064V36.4517ZM31.2903 31.4517V33.0646H41.2903V31.4517H31.2903ZM36.2903 28.0646H25.8064V38.0646H36.2903V28.0646ZM30.8064 33.0646V31.4517H20.8064V33.0646H30.8064Z" fill="#C1A87D" mask="url(#path-4-inside-3)"/>
<mask id="path-6-inside-4" fill="white">
<path d="M39.5162 31.4517H37.9033V33.0646H39.5162V31.4517Z"/>
</mask>
<path d="M39.5162 31.4517H37.9033V33.0646H39.5162V31.4517Z" fill="#C1A87D"/>
<path d="M37.9033 31.4517V26.4517H32.9033V31.4517H37.9033ZM39.5162 31.4517H44.5162V26.4517H39.5162V31.4517ZM39.5162 33.0646V38.0646H44.5162V33.0646H39.5162ZM37.9033 33.0646H32.9033V38.0646H37.9033V33.0646ZM37.9033 36.4517H39.5162V26.4517H37.9033V36.4517ZM34.5162 31.4517V33.0646H44.5162V31.4517H34.5162ZM39.5162 28.0646H37.9033V38.0646H39.5162V28.0646ZM42.9033 33.0646V31.4517H32.9033V33.0646H42.9033Z" fill="#C1A87D" mask="url(#path-6-inside-4)"/>
<mask id="path-8-inside-5" fill="white">
<path d="M50.0001 48.3871H48.3872V50H50.0001V48.3871Z"/>
</mask>
<path d="M50.0001 48.3871H48.3872V50H50.0001V48.3871Z" fill="#C1A87D"/>
<path d="M48.3872 48.3871V43.3871H43.3872V48.3871H48.3872ZM50.0001 48.3871H55.0001V43.3871H50.0001V48.3871ZM50.0001 50V55H55.0001V50H50.0001ZM48.3872 50H43.3872V55H48.3872V50ZM48.3872 53.3871H50.0001V43.3871H48.3872V53.3871ZM45.0001 48.3871V50H55.0001V48.3871H45.0001ZM50.0001 45H48.3872V55H50.0001V45ZM53.3872 50V48.3871H43.3872V50H53.3872Z" fill="#C1A87D" mask="url(#path-8-inside-5)"/>
<mask id="path-10-inside-6" fill="white">
<path d="M1.6129 48.3871H0V50H1.6129V48.3871Z"/>
</mask>
<path d="M1.6129 48.3871H0V50H1.6129V48.3871Z" fill="#C1A87D"/>
<path d="M0 48.3871V43.3871H-5V48.3871H0ZM1.6129 48.3871H6.6129V43.3871H1.6129V48.3871ZM1.6129 50V55H6.6129V50H1.6129ZM0 50H-5V55H0V50ZM0 53.3871H1.6129V43.3871H0V53.3871ZM-3.3871 48.3871V50H6.6129V48.3871H-3.3871ZM1.6129 45H0V55H1.6129V45ZM5 50V48.3871H-5V50H5Z" fill="#C1A87D" mask="url(#path-10-inside-6)"/>
</svg>
