<svg width="50" height="50" viewBox="0 0 50 50" fill="none" xmlns="http://www.w3.org/2000/svg">
<path d="M45.7499 35.3027C44.864 34.8894 43.7615 34.375 41.7407 34.375C39.7199 34.375 38.6174 34.8895 37.7316 35.3027C36.9717 35.6573 36.3715 35.9375 35.0438 35.9375C33.7162 35.9375 33.1162 35.6574 32.3563 35.3027C31.4705 34.8895 30.3682 34.375 28.3474 34.375C26.3266 34.375 25.2242 34.8896 24.3385 35.3027C23.5786 35.6573 22.9785 35.9375 21.6511 35.9375C20.3236 35.9375 19.7236 35.6574 18.9639 35.3027C18.0781 34.8895 16.9758 34.375 14.9551 34.375C12.9344 34.375 11.8319 34.8896 10.9462 35.3027C10.1863 35.6573 9.58623 35.9375 8.25879 35.9375C6.93135 35.9375 6.33125 35.6574 5.57139 35.3027C4.68564 34.8896 3.5832 34.375 1.5625 34.375V37.5C2.88994 37.5 3.49004 37.7801 4.2499 38.1348C5.13564 38.548 6.23809 39.0625 8.25879 39.0625C10.2795 39.0625 11.3819 38.5479 12.2677 38.1348C13.0275 37.7802 13.6276 37.5 14.9551 37.5C16.2825 37.5 16.8825 37.7801 17.6423 38.1348C18.528 38.548 19.6304 39.0625 21.6511 39.0625C23.6718 39.0625 24.7742 38.5479 25.66 38.1348C26.4198 37.7802 27.02 37.5 28.3474 37.5C29.6747 37.5 30.275 37.7801 31.0349 38.1348C31.9207 38.548 33.023 39.0625 35.0438 39.0625C37.0646 39.0625 38.1672 38.548 39.053 38.1348C39.8129 37.7802 40.4132 37.5 41.7407 37.5C43.0683 37.5 43.6686 37.7801 44.4283 38.1348C45.3143 38.5481 46.4167 39.0625 48.4375 39.0625V35.9375C47.11 35.9375 46.5097 35.6574 45.7499 35.3027Z" fill="#C1A87D"/>
<path d="M41.7407 43.75C39.7199 43.75 38.6174 44.2645 37.7316 44.6777C36.9717 45.0323 36.3715 45.3125 35.0438 45.3125C33.7162 45.3125 33.1162 45.0324 32.3563 44.6777C31.4705 44.2645 30.3682 43.75 28.3474 43.75C26.3266 43.75 25.2242 44.2646 24.3385 44.6777C23.5786 45.0323 22.9785 45.3125 21.6511 45.3125C20.3236 45.3125 19.7236 45.0324 18.9639 44.6777C18.0781 44.2645 16.9758 43.75 14.9551 43.75C12.9344 43.75 11.8319 44.2646 10.9462 44.6777C10.1863 45.0323 9.58623 45.3125 8.25879 45.3125C6.93135 45.3125 6.33125 45.0324 5.57139 44.6777C4.68564 44.2646 3.5832 43.75 1.5625 43.75V46.875C2.88994 46.875 3.49004 47.1551 4.2499 47.5098C5.13564 47.923 6.23809 48.4375 8.25879 48.4375C10.2795 48.4375 11.3819 47.9229 12.2677 47.5098C13.0275 47.1552 13.6276 46.875 14.9551 46.875C16.2825 46.875 16.8825 47.1551 17.6423 47.5098C18.528 47.923 19.6304 48.4375 21.6511 48.4375C23.6718 48.4375 24.7742 47.9229 25.66 47.5098C26.4198 47.1552 27.02 46.875 28.3474 46.875C29.6747 46.875 30.275 47.1551 31.0349 47.5098C31.9207 47.923 33.023 48.4375 35.0438 48.4375C37.0646 48.4375 38.1672 47.923 39.053 47.5098C39.8129 47.1552 40.4132 46.875 41.7407 46.875C43.0683 46.875 43.6686 47.1551 44.4283 47.5098C45.3143 47.9231 46.4167 48.4375 48.4375 48.4375V45.3125C47.11 45.3125 46.5097 45.0324 45.7499 44.6777C44.864 44.2645 43.7615 43.75 41.7407 43.75Z" fill="#C1A87D"/>
<path d="M24.2188 26.5625H38.2813V32.0312H41.4063V11.3162C41.405 10.3678 41.6927 9.44149 42.2311 8.66064L47.111 1.5625H43.3187L39.6559 6.89023C38.7587 8.19167 38.2792 9.7355 38.2813 11.3162V15.625H24.2188V11.3162C24.2175 10.3678 24.5052 9.44149 25.0436 8.66064L29.9235 1.5625H26.1312L22.4684 6.89023C21.5712 8.19167 21.0917 9.7355 21.0938 11.3162V32.0312H24.2188V26.5625ZM24.2188 18.75H38.2813V23.4375H24.2188V18.75Z" fill="#C1A87D"/>
</svg>
