<svg width="50" height="50" viewBox="0 0 50 50" fill="none" xmlns="http://www.w3.org/2000/svg">
<g clip-path="url(#clip0)">
<path d="M9.91668 24.7786L9.9165 24.7786V24.7917C9.9165 29.5152 11.8516 33.8274 15.7229 36.844C17.3031 38.2308 18.2498 39.9741 18.2498 41.8751V46.2501C18.2498 49.006 20.1205 50.5001 21.8748 50.5001H28.1248C30.0676 50.5001 31.7498 48.8179 31.7498 46.8751V42.0834C31.7498 40.1538 32.7206 38.0089 34.472 36.6459C38.1462 33.8353 40.0832 29.5171 40.0832 25.0001C40.0832 20.9017 38.3584 17.0266 35.5617 14.2299C32.7522 11.4204 28.8716 9.91675 24.7915 9.91675V9.91657L24.778 9.91693C16.8089 10.1323 10.1321 16.5913 9.91668 24.7786ZM17.6081 34.4048L17.5979 34.3964L17.5872 34.3885C14.6101 32.2054 13.002 28.6187 12.9998 24.7996C13.2042 18.3971 18.6149 13.0001 24.9998 13.0001C28.2073 13.0001 31.203 14.202 33.3963 16.3953C35.8023 18.8013 36.9998 21.7991 36.9998 25.0001C36.9998 28.6026 35.399 31.997 32.6076 34.1903L32.6075 34.1902L32.5999 34.1964C30.2045 36.1563 28.6665 39.2099 28.6665 42.0834V46.8751C28.6665 47.074 28.6024 47.2008 28.5265 47.2767C28.4506 47.3526 28.3237 47.4168 28.1248 47.4168H21.8748C21.7231 47.4168 21.6445 47.3746 21.5952 47.3329C21.5371 47.2838 21.4805 47.201 21.4343 47.0715C21.3372 46.7998 21.3332 46.4669 21.3332 46.2501V41.8751C21.3332 39.0016 20.0035 36.3647 17.6081 34.4048Z" fill="#C1A87D" stroke="#C1A87D"/>
<path d="M19.7917 44.25H30.2083C30.6345 44.25 31.0284 44.1057 31.3171 43.817C31.6058 43.5284 31.75 43.1344 31.75 42.7083C31.75 42.2822 31.6058 41.8882 31.3171 41.5995C31.0284 41.3108 30.6345 41.1666 30.2083 41.1666H19.7917C19.3655 41.1666 18.9716 41.3108 18.6829 41.5995C18.3942 41.8882 18.25 42.2822 18.25 42.7083C18.25 43.1344 18.3942 43.5284 18.6829 43.817C18.9716 44.1057 19.3655 44.25 19.7917 44.25Z" fill="#C1A87D" stroke="#C1A87D"/>
<path d="M23.4585 5.20833C23.4585 5.63446 23.6027 6.02841 23.8914 6.31709C24.1801 6.60578 24.574 6.75 25.0002 6.75C25.4263 6.75 25.8202 6.60578 26.1089 6.31709C26.3976 6.02841 26.5418 5.63446 26.5418 5.20833V1.04167C26.5418 0.615543 26.3976 0.221587 26.1089 -0.0670945C25.8202 -0.355776 25.4263 -0.5 25.0002 -0.5C24.574 -0.5 24.1801 -0.355776 23.8914 -0.0670945C23.6027 0.221587 23.4585 0.615543 23.4585 1.04167V5.20833Z" fill="#C1A87D" stroke="#C1A87D"/>
<path d="M39.5833 11.875L39.8069 12.3222L39.8795 12.2859L39.9369 12.2285L42.8535 9.31189C43.4655 8.69996 43.4655 7.75837 42.8535 7.14645C42.2416 6.53452 41.3 6.53452 40.6881 7.14645L37.7714 10.0631C37.1595 10.675 37.1595 11.6166 37.7714 12.2285C37.9865 12.4436 38.2685 12.5187 38.4595 12.5505C38.6569 12.5834 38.8475 12.5834 38.9507 12.5833L38.9583 12.5833C39.0803 12.5833 39.1984 12.5552 39.2812 12.5315C39.3717 12.5057 39.4605 12.4731 39.5347 12.4434C39.6099 12.4133 39.6767 12.3836 39.7245 12.3615C39.7486 12.3504 39.7683 12.341 39.7824 12.3342L39.7993 12.326L39.8043 12.3235L39.8059 12.3227L39.8065 12.3224L39.8067 12.3223L39.8068 12.3223C39.8069 12.3222 39.8069 12.3222 39.5833 11.875Z" fill="#C1A87D" stroke="#C1A87D"/>
<path d="M44.7917 26.5416H48.9583C49.3845 26.5416 49.7784 26.3974 50.0671 26.1087C50.3558 25.82 50.5 25.426 50.5 24.9999C50.5 24.5738 50.3558 24.1798 50.0671 23.8912C49.7784 23.6025 49.3845 23.4583 48.9583 23.4583H44.7917C44.3655 23.4583 43.9716 23.6025 43.6829 23.8912C43.3942 24.1798 43.25 24.5738 43.25 24.9999C43.25 25.426 43.3942 25.82 43.6829 26.1087C43.9716 26.3974 44.3655 26.5416 44.7917 26.5416Z" fill="#C1A87D" stroke="#C1A87D"/>
<path d="M40.6881 43.0618C40.9031 43.2768 41.1852 43.3519 41.3761 43.3837C41.5736 43.4166 41.7641 43.4166 41.8674 43.4166L41.875 43.4166C41.8877 43.4166 41.9006 43.4166 41.9138 43.4166C42.0853 43.4169 42.2987 43.4172 42.465 43.3756C42.5666 43.3502 42.715 43.2954 42.8346 43.1609C42.8963 43.0916 42.9368 43.0165 42.9623 42.9419C43.463 42.3321 43.4268 41.4696 42.8535 40.8964L39.9369 37.9797C39.325 37.3678 38.3834 37.3678 37.7714 37.9797C37.1595 38.5916 37.1595 39.5332 37.7714 40.1451L40.6881 43.0618Z" fill="#C1A87D" stroke="#C1A87D"/>
<path d="M12.0203 37.9797L11.6677 38.3323L12.0203 37.9797C11.4084 37.3678 10.4668 37.3678 9.85486 37.9797L6.9382 40.8964C6.32627 41.5083 6.32627 42.4499 6.93819 43.0618C7.1532 43.2768 7.43528 43.3519 7.62621 43.3837C7.82366 43.4166 8.0142 43.4166 8.11745 43.4166L8.12508 43.4166C8.13007 43.4166 8.13517 43.4166 8.14035 43.4166C8.35929 43.4168 8.74827 43.4172 9.10363 43.0618L12.0203 40.1451C12.6322 39.5332 12.6322 38.5916 12.0203 37.9797Z" fill="#C1A87D" stroke="#C1A87D"/>
<path d="M1.04167 26.5416H5.20833C5.63446 26.5416 6.02841 26.3974 6.31709 26.1087C6.60578 25.82 6.75 25.426 6.75 24.9999C6.75 24.5738 6.60578 24.1798 6.31709 23.8912C6.02841 23.6025 5.63446 23.4583 5.20833 23.4583H1.04167C0.615543 23.4583 0.221587 23.6025 -0.0670943 23.8912C-0.355776 24.1798 -0.5 24.5738 -0.5 24.9999C-0.5 25.426 -0.355776 25.82 -0.0670943 26.1087C0.221587 26.3974 0.615543 26.5416 1.04167 26.5416Z" fill="#C1A87D" stroke="#C1A87D"/>
<path d="M9.84289 12.2161L9.84877 12.2224L9.85486 12.2285C10.0699 12.4435 10.3519 12.5186 10.5429 12.5504C10.7403 12.5834 10.9309 12.5833 11.0341 12.5833L11.0417 12.5833C11.3091 12.5833 11.5214 12.4527 11.6542 12.3531C11.7873 12.2533 11.9131 12.1275 12.0094 12.0311C12.0131 12.0274 12.0167 12.0238 12.0203 12.0202C12.6322 11.4082 12.6322 10.4667 12.0203 9.85474L9.10363 6.93807C8.49171 6.32614 7.55012 6.32614 6.93819 6.93807C6.32848 7.54779 6.32627 8.48478 6.93158 9.09686L9.84289 12.2161Z" fill="#C1A87D" stroke="#C1A87D"/>
<path d="M31.7918 25C31.7918 25.4261 31.936 25.8201 32.2247 26.1087C32.5134 26.3974 32.9074 26.5417 33.3335 26.5417C33.7596 26.5417 34.1536 26.3974 34.4422 26.1087C34.7309 25.8201 34.8751 25.4261 34.8751 25C34.8751 19.5155 30.4846 15.125 25.0002 15.125C24.574 15.125 24.1801 15.2692 23.8914 15.5579C23.6027 15.8466 23.4585 16.2405 23.4585 16.6667C23.4585 17.0928 23.6027 17.4867 23.8914 17.7754C24.1801 18.0641 24.574 18.2083 25.0002 18.2083C28.6823 18.2083 31.7918 21.3178 31.7918 25Z" fill="#C1A87D" stroke="#C1A87D"/>
</g>
<defs>
<clipPath id="clip0">
<rect width="50" height="50" fill="white"/>
</clipPath>
</defs>
</svg>
