<svg width="50" height="50" viewBox="0 0 50 50" fill="none" xmlns="http://www.w3.org/2000/svg">
<g clip-path="url(#clip0)">
<path d="M10.2166 24.7865L10.2165 24.7865V24.7917C10.2165 29.4312 12.1156 33.6561 15.9141 36.6127C17.5462 38.0425 18.5498 39.8648 18.5498 41.8751V46.2501C18.5498 48.8524 20.2981 50.2001 21.8748 50.2001H28.1248C29.902 50.2001 31.4498 48.6522 31.4498 46.8751V42.0834C31.4498 40.0616 32.4632 37.8286 34.2887 36.4084C37.8834 33.6592 39.7832 29.4319 39.7832 25.0001C39.7832 20.9857 38.0933 17.1857 35.3496 14.442C32.6008 11.6932 28.7986 10.2167 24.7915 10.2167V10.2167L24.7861 10.2168C16.9735 10.428 10.4278 16.7616 10.2166 24.7865ZM17.4182 34.637L17.4183 34.6367L17.4098 34.6305C14.344 32.3822 12.7007 28.6975 12.6998 24.7949C12.9066 18.2339 18.4459 12.7001 24.9998 12.7001C28.2828 12.7001 31.3561 13.9309 33.6084 16.1832C36.0708 18.6456 37.2998 21.7197 37.2998 25.0001C37.2998 28.6911 35.6595 32.1739 32.7929 34.4262L32.7929 34.4261L32.7899 34.4286C30.4567 36.3376 28.9665 39.309 28.9665 42.0834V46.8751C28.9665 47.1421 28.8784 47.3491 28.7386 47.4889C28.5989 47.6286 28.3919 47.7168 28.1248 47.7168H21.8748C21.6579 47.7168 21.5093 47.653 21.4017 47.5621C21.2905 47.4683 21.2093 47.3336 21.1517 47.1724C21.0348 46.845 21.0332 46.4618 21.0332 46.2501V41.8751C21.0332 39.1007 19.7513 36.5459 17.4182 34.637Z" fill="#C1A87D" stroke="#C1A87D" stroke-width="0.4"/>
<path d="M19.7917 43.95H30.2083C30.5663 43.95 30.8801 43.8298 31.105 43.6049C31.3298 43.3801 31.45 43.0662 31.45 42.7083C31.45 42.3503 31.3298 42.0365 31.105 41.8117C30.8801 41.5868 30.5663 41.4666 30.2083 41.4666H19.7917C19.4337 41.4666 19.1199 41.5868 18.895 41.8117C18.6702 42.0365 18.55 42.3503 18.55 42.7083C18.55 43.0662 18.6702 43.3801 18.895 43.6049C19.1199 43.8298 19.4337 43.95 19.7917 43.95Z" fill="#C1A87D" stroke="#C1A87D" stroke-width="0.4"/>
<path d="M23.7585 5.20833C23.7585 5.56628 23.8787 5.88012 24.1035 6.10496C24.3284 6.32981 24.6422 6.45 25.0002 6.45C25.3581 6.45 25.6719 6.32981 25.8968 6.10496C26.1216 5.88012 26.2418 5.56628 26.2418 5.20833V1.04167C26.2418 0.683717 26.1216 0.369885 25.8968 0.145037C25.6719 -0.0798104 25.3581 -0.2 25.0002 -0.2C24.6422 -0.2 24.3284 -0.0798104 24.1035 0.145037C23.8787 0.369885 23.7585 0.683717 23.7585 1.04167V5.20833Z" fill="#C1A87D" stroke="#C1A87D" stroke-width="0.4"/>
<path d="M39.5833 11.875L39.6728 12.0539L39.7018 12.0394L39.7248 12.0164L42.6414 9.09975C43.1362 8.60498 43.1362 7.85335 42.6414 7.35858C42.1466 6.86381 41.395 6.86381 40.9002 7.35858L37.9836 10.2752C37.4888 10.77 37.4888 11.5216 37.9836 12.0164C38.1321 12.1649 38.3387 12.2262 38.5088 12.2546C38.6814 12.2833 38.8512 12.2833 38.9546 12.2833H38.9583C39.0384 12.2833 39.1247 12.2643 39.1988 12.2431C39.276 12.221 39.3545 12.1924 39.4232 12.1649C39.4924 12.1372 39.5543 12.1097 39.5988 12.0891C39.6211 12.0788 39.6393 12.0702 39.652 12.0641L39.6669 12.0568L39.671 12.0548L39.6722 12.0542L39.6726 12.054L39.6727 12.0539L39.6727 12.0539L39.5833 11.875Z" fill="#C1A87D" stroke="#C1A87D" stroke-width="0.4"/>
<path d="M44.7917 26.2416H48.9583C49.3163 26.2416 49.6301 26.1214 49.855 25.8965C50.0798 25.6717 50.2 25.3579 50.2 24.9999C50.2 24.642 50.0798 24.3281 49.855 24.1033C49.6301 23.8784 49.3163 23.7583 48.9583 23.7583H44.7917C44.4337 23.7583 44.1199 23.8784 43.895 24.1033C43.6702 24.3281 43.55 24.642 43.55 24.9999C43.55 25.3579 43.6702 25.6717 43.895 25.8965C44.1199 26.1214 44.4337 26.2416 44.7917 26.2416Z" fill="#C1A87D" stroke="#C1A87D" stroke-width="0.4"/>
<path d="M40.9002 42.8497C41.0487 42.9982 41.2553 43.0595 41.4255 43.0878C41.5981 43.1166 41.7679 43.1166 41.8713 43.1166H41.875C41.8832 43.1166 41.8914 43.1166 41.8995 43.1166C42.0864 43.1166 42.2637 43.1167 42.3923 43.0846C42.4641 43.0666 42.5469 43.033 42.6104 42.9616C42.6548 42.9116 42.6797 42.8548 42.6914 42.7969C43.1356 42.3027 43.1189 41.586 42.6414 41.1085L39.7248 38.1918C39.23 37.6971 38.4783 37.6971 37.9836 38.1918C37.4888 38.6866 37.4888 39.4382 37.9836 39.933L40.9002 42.8497Z" fill="#C1A87D" stroke="#C1A87D" stroke-width="0.4"/>
<path d="M7.15033 42.8497C7.29883 42.9982 7.50541 43.0595 7.67553 43.0878C7.84818 43.1166 8.01799 43.1166 8.12139 43.1166H8.12508L8.1333 43.1166C8.34373 43.1166 8.62448 43.1167 8.8915 42.8497L11.8082 39.933C12.3029 39.4382 12.3029 38.6866 11.8082 38.1918C11.3134 37.6971 10.5618 37.6971 10.067 38.1918L7.15033 41.1085C6.65556 41.6033 6.65556 42.3549 7.15033 42.8497Z" fill="#C1A87D" stroke="#C1A87D" stroke-width="0.4"/>
<path d="M1.04167 26.2416H5.20833C5.56628 26.2416 5.88012 26.1214 6.10496 25.8965C6.32981 25.6717 6.45 25.3579 6.45 24.9999C6.45 24.642 6.32981 24.3281 6.10496 24.1033C5.88012 23.8784 5.56628 23.7583 5.20833 23.7583H1.04167C0.683717 23.7583 0.369885 23.8784 0.145037 24.1033C-0.0798104 24.3281 -0.2 24.642 -0.2 24.9999C-0.2 25.3579 -0.0798104 25.6717 0.145037 25.8965C0.369885 26.1214 0.683717 26.2416 1.04167 26.2416Z" fill="#C1A87D" stroke="#C1A87D" stroke-width="0.4"/>
<mask id="path-9-outside-1" maskUnits="userSpaceOnUse" x="5.97925" y="5.97913" width="7" height="7" fill="black">
<rect fill="white" x="5.97925" y="5.97913" width="7" height="7"/>
<path d="M11.0417 12.0833C10.8334 12.0833 10.4167 12.0833 10.2084 11.875L7.29175 8.74996C6.87508 8.33329 6.87508 7.70829 7.29175 7.29163C7.70841 6.87496 8.33341 6.87496 8.75008 7.29163L11.6667 10.2083C12.0834 10.625 12.0834 11.25 11.6667 11.6666C11.4584 11.875 11.2501 12.0833 11.0417 12.0833Z"/>
</mask>
<path d="M11.0417 12.0833C10.8334 12.0833 10.4167 12.0833 10.2084 11.875L7.29175 8.74996C6.87508 8.33329 6.87508 7.70829 7.29175 7.29163C7.70841 6.87496 8.33341 6.87496 8.75008 7.29163L11.6667 10.2083C12.0834 10.625 12.0834 11.25 11.6667 11.6666C11.4584 11.875 11.2501 12.0833 11.0417 12.0833Z" fill="#C1A87D"/>
<path d="M10.2084 11.875L9.91582 12.148L9.92557 12.1578L10.2084 11.875ZM7.29175 8.74996L7.58434 8.47687L7.57459 8.46711L7.29175 8.74996ZM8.75008 7.29163L8.46724 7.57447L8.75008 7.29163ZM11.6667 10.2083L11.9496 9.92545L11.6667 10.2083ZM11.0417 11.6833C10.9353 11.6833 10.8102 11.6826 10.6908 11.6627C10.5623 11.6413 10.5068 11.6076 10.4913 11.5921L9.92557 12.1578C10.1184 12.3506 10.3753 12.4211 10.5593 12.4518C10.7525 12.484 10.9399 12.4833 11.0417 12.4833V11.6833ZM10.5008 11.602L7.58417 8.47703L6.99933 9.02289L9.91599 12.1479L10.5008 11.602ZM7.57459 8.46711C7.31413 8.20666 7.31413 7.83493 7.57459 7.57447L7.00891 7.00878C6.43603 7.58166 6.43603 8.45992 7.00891 9.0328L7.57459 8.46711ZM7.57459 7.57447C7.83505 7.31401 8.20678 7.31401 8.46724 7.57447L9.03292 7.00878C8.46005 6.43591 7.58178 6.43591 7.00891 7.00878L7.57459 7.57447ZM8.46724 7.57447L11.3839 10.4911L11.9496 9.92545L9.03292 7.00878L8.46724 7.57447ZM11.3839 10.4911C11.6444 10.7516 11.6444 11.1233 11.3839 11.3838L11.9496 11.9495C12.5225 11.3766 12.5225 10.4983 11.9496 9.92545L11.3839 10.4911ZM11.3839 11.3838C11.2745 11.4932 11.1912 11.5753 11.1142 11.6331C11.0331 11.694 11.0154 11.6833 11.0417 11.6833V12.4833C11.2764 12.4833 11.4671 12.3684 11.5942 12.2731C11.7256 12.1746 11.8507 12.0484 11.9496 11.9495L11.3839 11.3838Z" fill="#C1A87D" mask="url(#path-9-outside-1)"/>
<path d="M32.0918 25C32.0918 25.3579 32.212 25.6718 32.4369 25.8966C32.6617 26.1215 32.9755 26.2417 33.3335 26.2417C33.6914 26.2417 34.0053 26.1215 34.2301 25.8966C34.455 25.6718 34.5751 25.3579 34.5751 25C34.5751 19.6812 30.3189 15.425 25.0002 15.425C24.6422 15.425 24.3284 15.5452 24.1035 15.77C23.8787 15.9949 23.7585 16.3087 23.7585 16.6667C23.7585 17.0246 23.8787 17.3384 24.1035 17.5633C24.3284 17.7881 24.6422 17.9083 25.0002 17.9083C28.848 17.9083 32.0918 21.1521 32.0918 25Z" fill="#C1A87D" stroke="#C1A87D" stroke-width="0.4"/>
</g>
<defs>
<clipPath id="clip0">
<rect width="50" height="50" fill="white"/>
</clipPath>
</defs>
</svg>
