<svg width="44" height="50" viewBox="0 0 44 50" fill="none" xmlns="http://www.w3.org/2000/svg">
<path d="M41.8896 8.09628L22.7489 0.149304C22.2694 -0.0497192 21.7305 -0.0498169 21.2511 0.149304L2.11045 8.09628C1.38145 8.39901 0.90625 9.11073 0.90625 9.90009V19.5607C0.90625 32.8628 8.94619 44.8283 21.2619 49.8552C21.735 50.0482 22.2649 50.0482 22.7381 49.8552C35.0536 44.8284 43.0938 32.8629 43.0938 19.5607V9.90009C43.0938 9.11073 42.6187 8.39901 41.8896 8.09628ZM39.1875 19.5607C39.1875 30.8688 32.5469 41.2787 22 45.9254C11.735 41.4028 4.8125 31.1753 4.8125 19.5607V11.204L22 4.06786L39.1875 11.204V19.5607ZM19.8412 26.1441L28.2361 17.7493C28.9988 16.9866 30.2354 16.9865 30.9982 17.7493C31.761 18.5121 31.7609 19.7487 30.9981 20.5114L21.2223 30.2873C20.4594 31.0502 19.2228 31.0499 18.4602 30.2873L13.0018 24.8289C12.239 24.0661 12.239 22.8295 13.0018 22.0668C13.7646 21.3041 15.0012 21.304 15.7639 22.0668L19.8412 26.1441Z" fill="#C1A87D"/>
</svg>
