<svg width="50" height="50" viewBox="0 0 50 50" fill="none" xmlns="http://www.w3.org/2000/svg">
<g clip-path="url(#clip0)">
<path d="M24.9023 45.5565C26.6822 45.5565 28.125 44.1137 28.125 42.3339C28.125 40.554 26.6822 39.1112 24.9023 39.1112C23.1225 39.1112 21.6797 40.554 21.6797 42.3339C21.6797 44.1137 23.1225 45.5565 24.9023 45.5565Z" fill="#C1A87D"/>
<path d="M49.4757 15.1234C43.0567 8.23642 34.3647 4.44346 24.9996 4.44336C15.6354 4.44346 6.94332 8.23642 0.524286 15.1234C-0.211064 15.9125 -0.167607 17.1484 0.621454 17.8839C1.41061 18.6192 2.64645 18.5759 3.3819 17.7867C9.05376 11.7012 16.7311 8.3497 25.0003 8.3496C33.2689 8.3497 40.9462 11.7012 46.618 17.7867C47.0027 18.1994 47.5243 18.4082 48.0472 18.4082C48.5241 18.4082 49.0021 18.2345 49.3785 17.8839C50.1676 17.1483 50.2111 15.9125 49.4757 15.1234Z" fill="#C1A87D"/>
<path d="M42.304 23.1892C37.5592 18.4085 31.4138 15.7758 24.9997 15.776C18.5842 15.7761 12.4387 18.4089 7.69536 23.1894C6.9356 23.9551 6.94038 25.1917 7.70611 25.9515C8.47183 26.7112 9.70845 26.7064 10.4682 25.9407C14.4726 21.905 19.6333 19.6823 24.9997 19.6822C30.3648 19.682 35.5255 21.9048 39.5313 25.9409C39.9132 26.3256 40.4153 26.5182 40.9177 26.5182C41.4149 26.5182 41.9126 26.3293 42.2936 25.9513C43.0592 25.1914 43.0639 23.9548 42.304 23.1892Z" fill="#C1A87D"/>
<path d="M34.4875 31.2785C31.9465 28.761 28.3043 27.1973 24.9818 27.1973C24.9814 27.1973 24.9807 27.1973 24.9803 27.1973H24.8396C24.839 27.1973 24.8387 27.1973 24.8381 27.1973C21.5156 27.1973 17.873 28.7611 15.3321 31.2785C14.5659 32.0377 14.5601 33.2743 15.3193 34.0406C15.7012 34.4261 16.204 34.6191 16.7068 34.6191C17.2036 34.6191 17.7006 34.4308 18.0813 34.0535C19.8902 32.2613 22.5422 31.1035 24.8383 31.1035C24.8386 31.1035 24.839 31.1035 24.8393 31.1035H24.9806C24.981 31.1035 24.9811 31.1035 24.9815 31.1035C27.2773 31.1035 29.9295 32.2614 31.7382 34.0535C32.5044 34.8126 33.7413 34.8071 34.5003 34.0406C35.2596 33.2744 35.2539 32.0377 34.4875 31.2785Z" fill="#C1A87D"/>
</g>
<defs>
<clipPath id="clip0">
<rect width="50" height="50" fill="white"/>
</clipPath>
</defs>
</svg>
