<svg width="300" height="233" viewBox="0 0 300 233" fill="none" xmlns="http://www.w3.org/2000/svg">
<g clip-path="url(#clip0)">
<g opacity="0.8">
<path opacity="0.8" d="M273.693 220.466H15.522V53.4841C15.522 52.0874 16.0768 50.748 17.0644 49.7604C18.052 48.7728 19.3914 48.218 20.7881 48.218H268.427C269.824 48.218 271.163 48.7728 272.151 49.7604C273.139 50.748 273.693 52.0874 273.693 53.4841V220.466Z" fill="url(#paint0_linear)"/>
</g>
<path d="M24.3304 51.251H264.867C266.264 51.251 267.603 51.8058 268.591 52.7934C269.578 53.781 270.133 55.1204 270.133 56.5171V220.466H19.0776V56.5204C19.0768 55.1255 19.6293 53.7872 20.6141 52.7993C21.5989 51.8113 22.9355 51.2545 24.3304 51.251Z" fill="white"/>
<path d="M262.051 61.0965H27.1602V215.163H262.051V61.0965Z" fill="#F5F5F5"/>
<path opacity="0.8" d="M261.954 68.5757H28.0601V207.187H261.954V68.5757Z" fill="#E0E0E0"/>
<path d="M261.954 61.2099H28.0601V68.5757H261.954V61.2099Z" fill="#F5F5F5"/>
<path d="M33.0765 66.5693C34.0631 66.5693 34.863 65.7694 34.863 64.7828C34.863 63.7962 34.0631 62.9963 33.0765 62.9963C32.0899 62.9963 31.29 63.7962 31.29 64.7828C31.29 65.7694 32.0899 66.5693 33.0765 66.5693Z" fill="#FF5252"/>
<path d="M37.9857 66.5693C38.9723 66.5693 39.7722 65.7694 39.7722 64.7828C39.7722 63.7962 38.9723 62.9963 37.9857 62.9963C36.999 62.9963 36.1992 63.7962 36.1992 64.7828C36.1992 65.7694 36.999 66.5693 37.9857 66.5693Z" fill="#FFFF00"/>
<path d="M42.8983 66.5693C43.8849 66.5693 44.6848 65.7694 44.6848 64.7828C44.6848 63.7962 43.8849 62.9963 42.8983 62.9963C41.9116 62.9963 41.1118 63.7962 41.1118 64.7828C41.1118 65.7694 41.9116 66.5693 42.8983 66.5693Z" fill="#69F0AE"/>
<g opacity="0.8">
<path opacity="0.8" d="M280.915 231.538C266.543 232.627 19.7375 232.204 11.1151 231.538C-0.190272 226.088 0.0163703 204.944 0.0163703 204.944L113.204 204.187L113.584 210.623H162.018L163.911 204.957H289.344C289.344 204.957 291.837 224.342 280.915 231.538Z" fill="url(#paint1_linear)"/>
</g>
<path d="M287.508 206.647H164.522C164.996 207.195 165.302 207.868 165.404 208.585C165.506 209.302 165.4 210.033 165.097 210.692C164.795 211.35 164.31 211.908 163.7 212.298C163.09 212.688 162.38 212.895 161.656 212.893H114.701C113.976 212.895 113.267 212.688 112.656 212.298C112.046 211.908 111.561 211.35 111.259 210.692C110.957 210.033 110.85 209.302 110.952 208.585C111.055 207.868 111.361 207.195 111.834 206.647H1.70333C1.70333 206.647 1.51335 225.008 12.6821 229.754C21.1978 230.321 264.987 230.701 279.182 229.754C289.985 223.492 287.508 206.647 287.508 206.647Z" fill="#F5F5F5"/>
<path d="M27.2568 212.136C28.0925 212.136 28.77 211.459 28.77 210.623C28.77 209.788 28.0925 209.11 27.2568 209.11C26.4211 209.11 25.7437 209.788 25.7437 210.623C25.7437 211.459 26.4211 212.136 27.2568 212.136Z" fill="#E0E0E0"/>
<path d="M31.7998 212.136C32.6355 212.136 33.3129 211.459 33.3129 210.623C33.3129 209.788 32.6355 209.11 31.7998 209.11C30.9641 209.11 30.2866 209.788 30.2866 210.623C30.2866 211.459 30.9641 212.136 31.7998 212.136Z" fill="#E0E0E0"/>
<path d="M36.3393 212.136C37.175 212.136 37.8525 211.459 37.8525 210.623C37.8525 209.788 37.175 209.11 36.3393 209.11C35.5036 209.11 34.8262 209.788 34.8262 210.623C34.8262 211.459 35.5036 212.136 36.3393 212.136Z" fill="#E0E0E0"/>
<path d="M139.945 125.269H150.673C163.005 125.269 174.831 130.168 183.55 138.887C192.27 147.607 197.168 159.433 197.168 171.764V205.564H93.4497V171.764C93.4497 159.433 98.3483 147.607 107.068 138.887C115.787 130.168 127.613 125.269 139.945 125.269Z" fill="#7D96C1"/>
<path d="M145.411 107.191C171.59 107.191 192.812 85.9691 192.812 59.79C192.812 33.611 171.59 12.3886 145.411 12.3886C119.232 12.3886 98.0093 33.611 98.0093 59.79C98.0093 85.9691 119.232 107.191 145.411 107.191Z" fill="#333333"/>
<path opacity="0.1" d="M138.431 111.464H152.14C154.703 111.464 157.162 112.483 158.974 114.295C160.787 116.108 161.805 118.566 161.805 121.13V130.549C161.805 134.468 160.248 138.227 157.477 140.999C154.705 143.77 150.947 145.327 147.027 145.327H143.531C139.611 145.327 135.852 143.77 133.081 140.999C130.309 138.227 128.752 134.468 128.752 130.549V121.143C128.752 118.58 129.771 116.121 131.583 114.309C133.396 112.496 135.855 111.478 138.418 111.478L138.431 111.464Z" fill="black"/>
<path d="M128.752 110.498H161.822V129.596C161.822 133.515 160.265 137.274 157.494 140.045C154.722 142.817 150.963 144.374 147.044 144.374H143.531C139.611 144.374 135.852 142.817 133.081 140.045C130.309 137.274 128.752 133.515 128.752 129.596V110.498Z" fill="#FDB797"/>
<path opacity="0.1" d="M128.812 115.267C139.471 119.249 151.203 119.281 161.882 115.357V111.298H128.812V115.267Z" fill="black"/>
<path d="M145.411 117.48C171.59 117.48 192.812 96.258 192.812 70.0789C192.812 43.8998 171.59 22.6775 145.411 22.6775C119.232 22.6775 98.0093 43.8998 98.0093 70.0789C98.0093 96.258 119.232 117.48 145.411 117.48Z" fill="#FDB797"/>
<path opacity="0.1" d="M100.092 53.3007H190.482C190.482 53.3007 182.766 16.8015 148.594 19.1112C114.421 21.4209 100.092 53.3007 100.092 53.3007Z" fill="black"/>
<path d="M100.092 52.0742H190.482C190.482 52.0742 182.766 15.5749 148.594 17.9013C114.421 20.2278 100.092 52.0742 100.092 52.0742Z" fill="#333333"/>
<path d="M98.9891 76.3282C101.424 76.3282 103.399 72.626 103.399 68.0591C103.399 63.4922 101.424 59.79 98.9891 59.79C96.5538 59.79 94.5796 63.4922 94.5796 68.0591C94.5796 72.626 96.5538 76.3282 98.9891 76.3282Z" fill="#FDB797"/>
<path d="M191.585 76.3282C194.021 76.3282 195.995 72.626 195.995 68.0591C195.995 63.4922 194.021 59.79 191.585 59.79C189.15 59.79 187.176 63.4922 187.176 68.0591C187.176 72.626 189.15 76.3282 191.585 76.3282Z" fill="#FDB797"/>
<path d="M107.108 27.8902C108.191 24.3506 110.161 20.9677 113.201 18.8579C115.51 17.2548 118.273 16.4848 120.923 15.5449C124.844 14.1557 128.606 12.3559 132.149 10.1755C136.168 7.69914 139.944 4.71614 144.371 3.07966C151.986 0.263305 160.469 1.78647 168.331 3.80624C170.268 4.30286 172.227 4.8428 173.934 5.88935C175.91 7.09921 177.427 8.91901 178.907 10.7021L191.385 25.7538C192.528 27.1303 193.678 28.5235 194.485 30.1233C195.237 31.6729 195.718 33.3404 195.905 35.0528C196.238 37.8125 195.978 40.7388 194.572 43.1419C192.462 46.7448 188.112 48.5546 183.943 48.7212C179.773 48.8879 175.68 47.678 171.674 46.5048C158.756 42.7219 145.677 39.1956 132.279 37.6258C125.629 36.8053 118.919 36.5877 112.231 36.9759C110.131 37.1125 107.358 38.0758 106.081 35.936C104.978 34.0795 106.538 29.75 107.108 27.8902Z" fill="#333333"/>
<path opacity="0.05" d="M113.754 168.761V205.564" stroke="black" stroke-width="4" stroke-miterlimit="10"/>
<path opacity="0.05" d="M177.693 168.761V205.564" stroke="black" stroke-width="4" stroke-miterlimit="10"/>
<g opacity="0.8">
<path opacity="0.8" d="M300 66.1493H240.52L220.446 82.8875V66.1493H207.064V0H300V66.1493Z" fill="url(#paint2_linear)"/>
</g>
<path d="M298.74 0.786591H208.323V64.0429H298.74V0.786591Z" fill="white"/>
<path d="M290.148 10.0855H218.506V11.9653H290.148V10.0855Z" fill="#E0E0E0"/>
<path d="M267.76 18.5513H218.506V20.4311H267.76V18.5513Z" fill="#E0E0E0"/>
<path d="M277.613 27.0137H218.506V28.8935H277.613V27.0137Z" fill="#E0E0E0"/>
<path d="M265.971 35.4794H218.506V37.3592H265.971V35.4794Z" fill="#0099FF"/>
<path d="M290.148 43.9418H218.506V45.8216H290.148V43.9418Z" fill="#0099FF"/>
<path d="M290.148 52.4075H218.506V54.2873H290.148V52.4075Z" fill="#E0E0E0"/>
<path d="M223.792 62.813V79.5445L242.193 61.1399L223.792 62.813Z" fill="white"/>
</g>
<defs>
<linearGradient id="paint0_linear" x1="144.608" y1="220.466" x2="144.608" y2="48.2246" gradientUnits="userSpaceOnUse">
<stop stop-color="#808080" stop-opacity="0.25"/>
<stop offset="0.54" stop-color="#808080" stop-opacity="0.12"/>
<stop offset="1" stop-color="#808080" stop-opacity="0.1"/>
</linearGradient>
<linearGradient id="paint1_linear" x1="169221" y1="22572.3" x2="169221" y2="20217.4" gradientUnits="userSpaceOnUse">
<stop stop-color="#808080" stop-opacity="0.25"/>
<stop offset="0.54" stop-color="#808080" stop-opacity="0.12"/>
<stop offset="1" stop-color="#808080" stop-opacity="0.1"/>
</linearGradient>
<linearGradient id="paint2_linear" x1="70901.8" y1="20613.3" x2="70901.8" y2="0" gradientUnits="userSpaceOnUse">
<stop stop-color="#808080" stop-opacity="0.25"/>
<stop offset="0.54" stop-color="#808080" stop-opacity="0.12"/>
<stop offset="1" stop-color="#808080" stop-opacity="0.1"/>
</linearGradient>
<clipPath id="clip0">
<rect width="300" height="232.198" fill="white"/>
</clipPath>
</defs>
</svg>
