<svg width="36" height="36" viewBox="0 0 36 36" fill="none" xmlns="http://www.w3.org/2000/svg">
<rect width="36" height="36" rx="18" fill="white"/>
<path d="M14.6504 17.775C14.6504 16.0491 16.0491 14.6497 17.7749 14.6497C19.5007 14.6497 20.9002 16.0491 20.9002 17.775C20.9002 19.5008 19.5007 20.9002 17.7749 20.9002C16.0491 20.9002 14.6504 19.5008 14.6504 17.775ZM12.961 17.775C12.961 20.4337 15.1162 22.5889 17.7749 22.5889C20.4337 22.5889 22.5889 20.4337 22.5889 17.775C22.5889 15.1162 20.4337 12.961 17.7749 12.961C15.1162 12.961 12.961 15.1162 12.961 17.775ZM21.6544 12.7701C21.6543 12.9926 21.7202 13.2102 21.8438 13.3952C21.9673 13.5803 22.143 13.7245 22.3485 13.8098C22.554 13.895 22.7802 13.9174 22.9985 13.8741C23.2167 13.8307 23.4172 13.7237 23.5746 13.5664C23.732 13.4091 23.8392 13.2087 23.8827 12.9905C23.9262 12.7723 23.904 12.5461 23.819 12.3405C23.7339 12.1349 23.5898 11.9591 23.4048 11.8354C23.2199 11.7117 23.0024 11.6457 22.7799 11.6456H22.7794C22.4812 11.6457 22.1952 11.7642 21.9842 11.9751C21.7733 12.1859 21.6547 12.4719 21.6544 12.7701ZM13.9874 25.406C13.0734 25.3644 12.5766 25.2121 12.2464 25.0835C11.8087 24.9131 11.4964 24.7101 11.1681 24.3822C10.8397 24.0543 10.6365 23.7423 10.4668 23.3046C10.3381 22.9746 10.1859 22.4777 10.1443 21.5637C10.0989 20.5755 10.0898 20.2786 10.0898 17.775C10.0898 15.2715 10.0996 14.9754 10.1443 13.9864C10.186 13.0724 10.3393 12.5764 10.4668 12.2454C10.6372 11.8077 10.8402 11.4954 11.1681 11.1671C11.496 10.8387 11.808 10.6355 12.2464 10.4658C12.5764 10.3371 13.0734 10.1849 13.9874 10.1433C14.9756 10.0979 15.2725 10.0888 17.7749 10.0888C20.2774 10.0888 20.5745 10.0986 21.5635 10.1433C22.4776 10.185 22.9735 10.3383 23.3045 10.4658C23.7422 10.6355 24.0545 10.8392 24.3829 11.1671C24.7112 11.495 24.9137 11.8077 25.0841 12.2454C25.2128 12.5754 25.3651 13.0724 25.4066 13.9864C25.4521 14.9754 25.4611 15.2715 25.4611 17.775C25.4611 20.2786 25.4521 20.5746 25.4066 21.5637C25.365 22.4777 25.212 22.9745 25.0841 23.3046C24.9137 23.7423 24.7108 24.0546 24.3829 24.3822C24.055 24.7098 23.7422 24.9131 23.3045 25.0835C22.9745 25.2122 22.4776 25.3644 21.5635 25.406C20.5753 25.4514 20.2785 25.4605 17.7749 25.4605C15.2713 25.4605 14.9753 25.4514 13.9874 25.406ZM13.9098 8.45674C12.9118 8.50219 12.2298 8.66044 11.6342 8.89219C11.0174 9.13151 10.4953 9.45259 9.97348 9.97354C9.4517 10.4945 9.13145 11.0175 8.89213 11.6343C8.66038 12.2302 8.50213 12.9118 8.45668 13.9098C8.41048 14.9094 8.3999 15.229 8.3999 17.775C8.3999 20.3209 8.41048 20.6405 8.45668 21.6401C8.50213 22.6382 8.66038 23.3197 8.89213 23.9157C9.13145 24.5321 9.45178 25.0557 9.97348 25.5764C10.4952 26.0971 11.0174 26.4177 11.6342 26.6577C12.2309 26.8895 12.9118 27.0477 13.9098 27.0932C14.9099 27.1386 15.229 27.15 17.7749 27.15C20.3209 27.15 20.6404 27.1394 21.64 27.0932C22.6381 27.0477 23.3197 26.8895 23.9156 26.6577C24.532 26.4177 25.0546 26.0973 25.5763 25.5764C26.0981 25.0554 26.4177 24.5321 26.6577 23.9157C26.8894 23.3197 27.0484 22.6381 27.0931 21.6401C27.1386 20.6397 27.1492 20.3209 27.1492 17.775C27.1492 15.229 27.1386 14.9094 27.0931 13.9098C27.0477 12.9117 26.8894 12.2298 26.6577 11.6343C26.4177 11.0178 26.0973 10.4953 25.5763 9.97354C25.0554 9.45176 24.532 9.13151 23.9164 8.89219C23.3197 8.66044 22.6381 8.50144 21.6408 8.45674C20.6412 8.41129 20.3216 8.39996 17.7757 8.39996C15.2297 8.39996 14.9099 8.41054 13.9098 8.45674Z" fill="#333333"/>
</svg>
