<svg width="18" height="24" viewBox="0 0 18 24" fill="none" xmlns="http://www.w3.org/2000/svg">
<path d="M9 22L8.2579 22.6703L9 23.4919L9.7421 22.6703L9 22ZM9 22C9.7421 22.6703 9.74224 22.6701 9.7424 22.67L9.74286 22.6694L9.74427 22.6679L9.74896 22.6627L9.76579 22.6439C9.78027 22.6277 9.80118 22.6042 9.82811 22.5737C9.88195 22.5127 9.95986 22.4238 10.0584 22.3094C10.2554 22.0808 10.5352 21.75 10.8702 21.3372C11.5393 20.5127 12.4332 19.3558 13.329 18.0281C14.2228 16.7032 15.1311 15.1902 15.8189 13.6549C16.5008 12.1328 17 10.5148 17 9C17 4.57772 13.4223 1 9 1C4.57772 1 1 4.57772 1 9C1 10.5148 1.49923 12.1328 2.18115 13.6549C2.86894 15.1902 3.77715 16.7032 4.67104 18.0281C5.56684 19.3558 6.46066 20.5127 7.12979 21.3372C7.4648 21.75 7.74459 22.0808 7.94161 22.3094C8.04014 22.4238 8.11805 22.5127 8.17189 22.5737C8.19882 22.6042 8.21973 22.6277 8.23421 22.6439L8.25104 22.6627L8.25573 22.6679L8.25714 22.6694L8.2576 22.67C8.25776 22.6701 8.2579 22.6703 9 22ZM9 10.5C8.17228 10.5 7.5 9.82772 7.5 9C7.5 8.17228 8.17228 7.5 9 7.5C9.82772 7.5 10.5 8.17228 10.5 9C10.5 9.82772 9.82772 10.5 9 10.5Z" stroke="white" stroke-width="2"/>
</svg>
