<svg width="22" height="22" viewBox="0 0 22 22" fill="none" xmlns="http://www.w3.org/2000/svg">
<path d="M13.7629 13.3529L13.7231 13.3927L13.688 13.4368L12.6298 14.7645C10.4828 13.5645 8.50287 11.6395 7.26535 9.44461L8.60821 8.30146L8.64569 8.26956L8.67984 8.23414C9.21268 7.68157 9.36991 6.90719 9.15399 6.22017L9.15141 6.21195L9.14868 6.20377C8.81406 5.19992 8.64 4.11701 8.64 2.99C8.64 1.89771 7.74228 1 6.65 1H3.19C2.79696 1 2.28403 1.0834 1.83676 1.3824C1.33675 1.71664 1 2.27206 1 2.99C1 12.8327 9.1781 21 19.01 21C19.7102 21 20.2552 20.6675 20.5898 20.1906C20.8958 19.7545 21 19.2431 21 18.82V15.37C21 14.2777 20.1023 13.38 19.01 13.38C17.8909 13.38 16.8071 13.1984 15.7949 12.8708C15.0804 12.6299 14.2962 12.8196 13.7629 13.3529Z" stroke="white" stroke-width="2"/>
</svg>
