<svg width="36" height="36" viewBox="0 0 36 36" fill="none" xmlns="http://www.w3.org/2000/svg">
<rect width="36" height="36" rx="18" fill="white"/>
<path d="M25.1016 14.4328C25.1016 14.5969 25.1016 14.7609 25.1016 14.9015C25.1016 19.7531 21.3984 25.3547 14.6484 25.3547C12.5625 25.3547 10.6406 24.7453 9 23.714C9.28125 23.7375 9.58594 23.7609 9.86719 23.7609C11.5781 23.7609 13.1719 23.175 14.4375 22.1906C12.8203 22.1672 11.4609 21.089 11.0156 19.6359C11.25 19.6828 11.4609 19.7062 11.7187 19.7062C12.0469 19.7062 12.375 19.6594 12.6797 19.5656C10.9922 19.2375 9.72656 17.7609 9.72656 15.9797C9.72656 15.9562 9.72656 15.9562 9.72656 15.9328C10.2187 16.214 10.7812 16.3781 11.3906 16.4015C10.4062 15.7453 9.75 14.6203 9.75 13.3312C9.75 12.6515 9.9375 12.0187 10.2422 11.4797C12.0469 13.7062 14.7656 15.1594 17.8125 15.3234C17.7422 15.0656 17.7187 14.7609 17.7187 14.4797C17.7187 12.4406 19.3594 10.8 21.3984 10.8C22.4531 10.8 23.4141 11.2453 24.0703 11.9484C24.9141 11.7844 25.6875 11.4797 26.4141 11.0578C26.1328 11.925 25.5469 12.6281 24.7969 13.0969C25.5469 13.0031 26.25 12.8156 26.9062 12.5109C26.4375 13.2609 25.8281 13.9172 25.1016 14.4328Z" fill="#333333"/>
</svg>
